<svg width="1249" height="1255" viewBox="0 0 1249 1255" fill="none" xmlns="http://www.w3.org/2000/svg">
<g clip-path="url(#clip0_199_2)">
<path d="M1066.99 182.377C949.577 64.8381 793.453 0.0717439 627.113 3.05176e-05C284.343 3.05176e-05 5.39805 278.963 5.26082 621.848C5.22088 731.453 33.8481 838.443 88.2608 932.752L0.0400391 1255L329.691 1168.53C420.516 1218.08 522.779 1244.19 626.845 1244.23H627.11H627.113C969.827 1244.23 1248.81 965.221 1248.96 622.352C1249.02 456.174 1184.39 299.925 1066.99 182.377ZM627.113 1139.2H626.911C534.151 1139.15 443.188 1114.24 363.846 1067.14L344.964 1055.94L149.342 1107.25L201.571 916.518L189.268 896.964C137.526 814.662 110.211 719.55 110.25 621.888C110.364 336.893 342.212 105.037 627.308 105.037C765.367 105.094 895.126 158.928 992.716 256.623C1090.3 354.317 1144 484.188 1143.96 622.308C1143.84 907.312 911.983 1139.2 627.113 1139.2Z" fill="#E0E0E0"/>
<path d="M28.5869 1219.24L112.778 911.716C60.8374 821.714 33.523 719.604 33.5558 615.026C33.692 287.81 299.898 21.598 626.981 21.598C785.73 21.6697 934.727 83.4744 1046.75 195.647C1158.8 307.819 1220.47 456.921 1220.41 615.49C1220.27 942.714 954.047 1208.95 627.005 1208.95C627.021 1208.95 626.981 1208.95 627.005 1208.95H626.74C527.428 1208.92 429.844 1183.98 343.173 1136.72L28.5869 1219.24Z" fill="url(#paint0_linear_199_2)"/>
<path fill-rule="evenodd" clip-rule="evenodd" d="M473.447 357.843C461.943 332.255 449.83 331.743 438.884 331.295C429.932 330.911 419.683 330.935 409.45 330.935C399.209 330.935 382.568 334.785 368.495 350.16C354.414 365.535 314.73 402.704 314.73 478.299C314.73 553.903 369.775 626.953 377.447 637.213C385.128 647.458 483.704 807.549 639.821 869.137C769.567 920.321 795.97 910.14 824.133 907.579C852.295 905.017 915.004 870.418 927.805 834.536C940.606 798.663 940.606 767.914 936.766 761.486C932.925 755.083 922.684 751.241 907.323 743.558C891.962 735.874 816.452 698.697 802.371 693.575C788.29 688.452 778.049 685.891 767.808 701.275C757.567 716.642 728.148 751.241 719.188 761.486C710.227 771.754 701.266 773.035 685.905 765.351C670.544 757.644 621.075 741.436 562.391 689.091C516.731 648.369 485.904 598.073 476.943 582.69C467.983 567.323 475.983 558.999 483.688 551.339C490.584 544.456 499.049 533.403 506.73 524.431C514.394 515.458 516.954 509.055 522.075 498.81C527.195 488.549 524.635 479.578 520.795 471.894C516.954 464.211 487.104 388.225 473.447 357.843Z" fill="white"/>
<path d="M1061.91 180.401C945.846 64.2111 791.513 0.189559 627.084 0.116821C288.249 0.116821 12.5055 275.877 12.3693 614.826C12.3294 723.174 40.6279 828.935 94.4159 922.162L7.20898 1240.71L333.076 1155.23C422.859 1204.21 523.948 1230.02 626.82 1230.06H627.081H627.084C965.864 1230.06 1241.65 954.256 1241.79 615.322C1241.85 451.054 1177.96 296.599 1061.91 180.401ZM627.084 1126.24H626.885C535.189 1126.19 445.269 1101.57 366.839 1055.01L348.173 1043.94L154.797 1094.66L206.425 906.115L194.264 886.786C143.116 805.428 116.114 711.408 116.154 614.867C116.266 333.144 345.453 103.95 627.277 103.95C763.752 104.006 892.019 157.222 988.491 253.796C1084.95 350.369 1138.04 478.748 1138 615.284C1137.88 897.014 908.683 1126.24 627.084 1126.24Z" fill="white"/>
</g>
<defs>
<linearGradient id="paint0_linear_199_2" x1="624.496" y1="1219.24" x2="624.496" y2="21.6" gradientUnits="userSpaceOnUse">
<stop stop-color="#20B038"/>
<stop offset="1" stop-color="#60D66A"/>
</linearGradient>
<clipPath id="clip0_199_2">
<rect width="1249" height="1255" fill="white"/>
</clipPath>
</defs>
</svg>
